<svg width="24" height="20" viewBox="0 0 24 20" fill="none" xmlns="http://www.w3.org/2000/svg">
<g clip-path="url(#clip0_161_109274)">
<path d="M16.2539 12.2549H15.4639L15.1839 11.9849C16.1639 10.8449 16.7539 9.36488 16.7539 7.75488C16.7539 4.16488 13.8439 1.25488 10.2539 1.25488C6.66391 1.25488 3.75391 4.16488 3.75391 7.75488C3.75391 11.3449 6.66391 14.2549 10.2539 14.2549C11.8639 14.2549 13.3439 13.6649 14.4839 12.6849L14.7539 12.9649V13.7549L19.7539 18.7449L21.2439 17.2549L16.2539 12.2549ZM10.2539 12.2549C7.76391 12.2549 5.75391 10.2449 5.75391 7.75488C5.75391 5.26488 7.76391 3.25488 10.2539 3.25488C12.7439 3.25488 14.7539 5.26488 14.7539 7.75488C14.7539 10.2449 12.7439 12.2549 10.2539 12.2549Z" fill="black"/>
</g>
<defs>
<clipPath id="clip0_161_109274">
<rect width="22.979" height="18.2346" fill="white" transform="translate(0.832031 0.916016)"/>
</clipPath>
</defs>
</svg>
