<svg width="17" height="17" viewBox="0 0 17 17" fill="none" xmlns="http://www.w3.org/2000/svg">
<g clip-path="url(#clip0_99_10444)">
<path d="M16.6062 8.42754C16.6062 10.5113 15.7715 12.5097 14.2858 13.9831C12.8001 15.4565 10.785 16.2843 8.68394 16.2843C6.58284 16.2843 4.56779 15.4565 3.08208 13.9831C1.59638 12.5097 0.761719 10.5113 0.761719 8.42754C0.761719 6.34381 1.59638 4.34541 3.08208 2.87199C4.56779 1.39856 6.58284 0.570801 8.68394 0.570801C10.785 0.570801 12.8001 1.39856 14.2858 2.87199C15.7715 4.34541 16.6062 6.34381 16.6062 8.42754V8.42754ZM8.68394 4.00813C8.68394 3.87789 8.63177 3.75299 8.53892 3.6609C8.44606 3.56881 8.32012 3.51708 8.1888 3.51708C8.05748 3.51708 7.93154 3.56881 7.83869 3.6609C7.74583 3.75299 7.69366 3.87789 7.69366 4.00813V9.40964C7.69369 9.49619 7.71679 9.5812 7.76061 9.65605C7.80443 9.7309 7.86743 9.79293 7.94321 9.83587L11.4092 11.8001C11.5229 11.861 11.6562 11.8754 11.7805 11.8402C11.9048 11.805 12.0104 11.723 12.0745 11.6117C12.1386 11.5004 12.1563 11.3686 12.1238 11.2445C12.0913 11.1204 12.0111 11.0138 11.9004 10.9476L8.68394 9.12483V4.00813Z" fill="black"/>
<path d="M8.75172 -1.57178C3.23172 -1.57178 -1.23828 2.90822 -1.23828 8.42822C-1.23828 13.9482 3.23172 18.4282 8.75172 18.4282C14.2817 18.4282 18.7617 13.9482 18.7617 8.42822C18.7617 2.90822 14.2817 -1.57178 8.75172 -1.57178ZM12.7617 12.4282C12.3717 12.8182 11.7417 12.8182 11.3517 12.4282L8.06172 9.13822C7.87172 8.94822 7.76172 8.69822 7.76172 8.42822V4.42822C7.76172 3.87822 8.21172 3.42822 8.76172 3.42822C9.31172 3.42822 9.76172 3.87822 9.76172 4.42822V8.01822L12.7617 11.0182C13.1517 11.4082 13.1517 12.0382 12.7617 12.4282Z" fill="black"/>
</g>
<defs>
<clipPath id="clip0_99_10444">
<rect width="15.8444" height="15.7135" fill="white" transform="translate(0.761719 0.570801)"/>
</clipPath>
</defs>
</svg>
