<svg width="24" height="24" viewBox="0 0 24 24" fill="none" xmlns="http://www.w3.org/2000/svg">
<path d="M6.54 19C6.6 18.11 6.75 17.24 6.99 16.41L5.79 15.21C5.38 16.41 5.12 17.68 5.03 19H6.54ZM16.4 6.98C17.25 6.74 18.12 6.59 19 6.53V5.04C17.68 5.13 16.41 5.39 15.2 5.79L16.4 6.98ZM7.5 21H4C3.45 21 3 20.55 3 20C3 10.61 10.61 3 20 3C20.55 3 21 3.45 21 4V7.49C21 8.04 20.55 8.49 20 8.49C18.76 8.49 17.55 8.69 16.43 9.06C16.33 9.1 16.22 9.11 16.12 9.11C15.86 9.11 15.61 9.01 15.41 8.82L13.21 6.62C10.38 8.07 8.06 10.38 6.62 13.21L8.82 15.41C9.1 15.69 9.18 16.08 9.07 16.43C8.7 17.55 8.5 18.75 8.5 20C8.5 20.55 8.05 21 7.5 21Z" fill="black"/>
</svg>
