<svg width="25" height="25" viewBox="0 0 25 25" fill="none" xmlns="http://www.w3.org/2000/svg">
<path d="M19.9849 15.3237L17.4449 15.0337C16.8349 14.9637 16.2349 15.1737 15.8049 15.6037L13.9649 17.4437C11.1349 16.0037 8.81492 13.6937 7.37492 10.8537L9.22492 9.00373C9.65492 8.57373 9.86492 7.97373 9.79492 7.36373L9.50492 4.84373C9.38492 3.83373 8.53492 3.07373 7.51492 3.07373H5.78492C4.65492 3.07373 3.71492 4.01373 3.78492 5.14373C4.31492 13.6837 11.1449 20.5037 19.6749 21.0337C20.8049 21.1037 21.7449 20.1637 21.7449 19.0337V17.3037C21.7549 16.2937 20.9949 15.4437 19.9849 15.3237Z" fill="black"/>
</svg>
