<svg width="18" height="18" viewBox="0 0 18 18" fill="none" xmlns="http://www.w3.org/2000/svg">
<path d="M4.905 14.25C4.95 13.5825 5.0625 12.93 5.2425 12.3075L4.3425 11.4075C4.035 12.3075 3.84 13.26 3.7725 14.25H4.905ZM12.3 5.235C12.9375 5.055 13.59 4.9425 14.25 4.8975V3.78C13.26 3.8475 12.3075 4.0425 11.4 4.3425L12.3 5.235ZM5.625 15.75H3C2.5875 15.75 2.25 15.4125 2.25 15C2.25 7.9575 7.9575 2.25 15 2.25C15.4125 2.25 15.75 2.5875 15.75 3V5.6175C15.75 6.03 15.4125 6.3675 15 6.3675C14.07 6.3675 13.1625 6.5175 12.3225 6.795C12.2475 6.825 12.165 6.8325 12.09 6.8325C11.895 6.8325 11.7075 6.7575 11.5575 6.615L9.9075 4.965C7.785 6.0525 6.045 7.785 4.965 9.9075L6.615 11.5575C6.825 11.7675 6.885 12.06 6.8025 12.3225C6.525 13.1625 6.375 14.0625 6.375 15C6.375 15.4125 6.0375 15.75 5.625 15.75Z" fill="black"/>
</svg>
