<svg width="49" height="48" viewBox="0 0 49 48" fill="none" xmlns="http://www.w3.org/2000/svg">
<path d="M23.1318 46.5902V39.3902C13.1118 38.8702 5.13184 30.5502 5.13184 20.4102C5.13184 9.93016 13.6518 1.41016 24.1318 1.41016C34.6118 1.41016 43.1318 9.93016 43.1318 20.4102C43.1318 30.3102 36.2518 40.2702 25.9918 45.2102L23.1318 46.5902ZM24.1318 5.41016C15.8518 5.41016 9.13184 12.1302 9.13184 20.4102C9.13184 28.6902 15.8518 35.4102 24.1318 35.4102H27.1318V40.0102C34.4118 35.4102 39.1318 27.8502 39.1318 20.4102C39.1318 12.1302 32.4118 5.41016 24.1318 5.41016ZM22.1318 28.4102H26.1318V32.4102H22.1318V28.4102ZM26.1318 25.4102H22.1318C22.1318 18.9102 28.1318 19.4102 28.1318 15.4102C28.1318 13.2102 26.3318 11.4102 24.1318 11.4102C21.9318 11.4102 20.1318 13.2102 20.1318 15.4102H16.1318C16.1318 10.9902 19.7118 7.41016 24.1318 7.41016C28.5518 7.41016 32.1318 10.9902 32.1318 15.4102C32.1318 20.4102 26.1318 20.9102 26.1318 25.4102Z" fill="black"/>
</svg>
