<svg width="49" height="48" viewBox="0 0 49 48" fill="none" xmlns="http://www.w3.org/2000/svg">
<path d="M18.1318 42C18.1318 43.1 19.0318 44 20.1318 44H28.1318C29.2318 44 30.1318 43.1 30.1318 42V40H18.1318V42ZM24.1318 4C16.4118 4 10.1318 10.28 10.1318 18C10.1318 22.76 12.5118 26.94 16.1318 29.48V34C16.1318 35.1 17.0318 36 18.1318 36H30.1318C31.2318 36 32.1318 35.1 32.1318 34V29.48C35.7518 26.94 38.1318 22.76 38.1318 18C38.1318 10.28 31.8518 4 24.1318 4ZM29.8318 26.2L28.1318 27.4V32H20.1318V27.4L18.4318 26.2C15.7318 24.32 14.1318 21.26 14.1318 18C14.1318 12.48 18.6118 8 24.1318 8C29.6518 8 34.1318 12.48 34.1318 18C34.1318 21.26 32.5318 24.32 29.8318 26.2Z" fill="black"/>
</svg>
