<svg width="25" height="25" viewBox="0 0 25 25" fill="none" xmlns="http://www.w3.org/2000/svg">
<path d="M12.7617 2.27466C8.56172 2.27466 4.76172 5.49466 4.76172 10.4747C4.76172 13.6547 7.21172 17.3947 12.1017 21.7047C12.4817 22.0347 13.0517 22.0347 13.4317 21.7047C18.3117 17.3947 20.7617 13.6547 20.7617 10.4747C20.7617 5.49466 16.9617 2.27466 12.7617 2.27466ZM12.7617 12.2747C11.6617 12.2747 10.7617 11.3747 10.7617 10.2747C10.7617 9.17466 11.6617 8.27466 12.7617 8.27466C13.8617 8.27466 14.7617 9.17466 14.7617 10.2747C14.7617 11.3747 13.8617 12.2747 12.7617 12.2747Z" fill="black"/>
</svg>
