<svg width="19" height="19" viewBox="0 0 19 19" fill="none" xmlns="http://www.w3.org/2000/svg">
<path fill-rule="evenodd" clip-rule="evenodd" d="M5.62409 0.870406C6.58777 0.826906 6.89532 0.816406 9.34894 0.816406C11.8026 0.816406 12.1101 0.826906 13.0738 0.870406C14.5426 0.937156 15.8319 1.29566 16.8671 2.32691C17.9027 3.35853 18.2622 4.64328 18.3292 6.10578C18.3729 7.06578 18.3834 7.37216 18.3834 9.81641C18.3834 12.2607 18.3729 12.567 18.3292 13.527C18.2622 14.9903 17.9023 16.2747 16.8671 17.3059C15.8316 18.3375 14.5415 18.6957 13.0738 18.7624C12.1101 18.8059 11.8026 18.8164 9.34894 18.8164C6.89532 18.8164 6.58777 18.8059 5.62409 18.7624C4.15524 18.6957 2.86594 18.3372 1.83074 17.3059C0.795163 16.2743 0.435666 14.9895 0.36866 13.527C0.324993 12.567 0.314453 12.2607 0.314453 9.81641C0.314453 7.37216 0.324993 7.06578 0.36866 6.10578C0.435666 4.64253 0.795539 3.35816 1.83074 2.32691C2.86632 1.29528 4.15599 0.937156 5.62409 0.870406ZM12.9996 2.49041C12.0469 2.44691 11.7611 2.43791 9.34894 2.43791C6.93673 2.43791 6.65102 2.44729 5.69825 2.49041C4.67021 2.53729 3.71594 2.74241 2.98189 3.47366C2.24784 4.20491 2.04192 5.15553 1.99487 6.17966C1.9512 7.12878 1.94217 7.41341 1.94217 9.81641C1.94217 12.2194 1.95158 12.504 1.99487 13.4532C2.04192 14.4773 2.24784 15.4279 2.98189 16.1592C3.71594 16.8904 4.67021 17.0955 5.69825 17.1424C6.65064 17.1859 6.93635 17.1949 9.34894 17.1949C11.7615 17.1949 12.0472 17.1855 12.9996 17.1424C14.0277 17.0955 14.9819 16.8904 15.716 16.1592C16.45 15.4279 16.6559 14.4773 16.703 13.4532C16.7467 12.504 16.7557 12.2194 16.7557 9.81641C16.7557 7.41341 16.7463 7.12878 16.703 6.17966C16.6559 5.15553 16.45 4.20491 15.716 3.47366C14.9819 2.74241 14.0277 2.53729 12.9996 2.49041Z" fill="#161C2D"/>
<path fill-rule="evenodd" clip-rule="evenodd" d="M5.24219 10.2256C5.24219 7.74044 7.26439 5.72559 9.75943 5.72559C12.2545 5.72559 14.2767 7.74007 14.2767 10.2256C14.2767 12.7111 12.2545 14.7256 9.75943 14.7256C7.26439 14.7256 5.24219 12.7107 5.24219 10.2256ZM6.8271 10.2256C6.8271 11.8388 8.14005 13.1467 9.75943 13.1467C11.3788 13.1467 12.6917 11.8388 12.6917 10.2256C12.6917 8.61239 11.3788 7.30446 9.75943 7.30446C8.14005 7.30446 6.8271 8.61239 6.8271 10.2256Z" fill="#161C2D"/>
<ellipse cx="13.8667" cy="5.31615" rx="1.23197" ry="1.22728" fill="#161C2D"/>
</svg>
