<svg width="18" height="16" viewBox="0 0 18 16" fill="none" xmlns="http://www.w3.org/2000/svg">
<path d="M17.0651 2.5561C16.4252 2.86538 15.7497 3.05867 15.0386 3.17465C15.7497 2.71074 16.3185 1.9762 16.5674 1.08702C15.8919 1.51228 15.1453 1.82156 14.3276 2.01486C13.6877 1.28032 12.7633 0.816406 11.7678 0.816406C9.848 0.816406 8.2837 2.51744 8.2837 4.60507C8.2837 4.91434 8.31925 5.18496 8.39036 5.45558C5.51062 5.30094 2.91529 3.79321 1.17323 1.47362C0.888809 2.05352 0.711047 2.67208 0.711047 3.36795C0.711047 4.68239 1.31544 5.84218 2.27535 6.53806C1.70651 6.4994 1.17323 6.34476 0.675495 6.07414V6.1128C0.675495 7.96847 1.88428 9.51486 3.48413 9.8628C3.19971 9.94012 2.87974 9.97878 2.55977 9.97878C2.34646 9.97878 2.09759 9.94012 1.88428 9.90146C2.34646 11.4092 3.62634 12.5303 5.15509 12.5303C3.94631 13.5355 2.45311 14.154 0.817704 14.154C0.533285 14.154 0.248867 14.154 0 14.1154C1.5643 15.1978 3.37747 15.8164 5.36841 15.8164C11.8034 15.8164 15.3231 10.0174 15.3231 4.99166C15.3231 4.83702 15.3231 4.64373 15.3231 4.48909C15.9986 3.98651 16.603 3.32929 17.0651 2.5561Z" fill="#161C2D"/>
</svg>
