<svg width="19" height="18" viewBox="0 0 19 18" fill="none" xmlns="http://www.w3.org/2000/svg">
<path fill-rule="evenodd" clip-rule="evenodd" d="M1.22748 0H17.7907C18.2048 0 18.5436 0.3375 18.5436 0.75V17.25C18.5436 17.6625 18.2048 18 17.7907 18H1.22748C0.813402 18 0.474609 17.6625 0.474609 17.25V0.75C0.474609 0.3375 0.813402 0 1.22748 0ZM3.14731 15.3375H5.82001V6.75H3.14731V15.3375ZM4.50248 5.58749C3.63668 5.58749 2.95909 4.91249 2.95909 4.05C2.95909 3.1875 3.63668 2.5125 4.50248 2.5125C5.36829 2.5125 6.04587 3.1875 6.04587 4.05C6.04587 4.87499 5.36829 5.58749 4.50248 5.58749ZM13.1982 15.3375H15.8332V10.6125C15.8332 8.28749 15.3439 6.52499 12.6335 6.52499C11.3536 6.52499 10.4502 7.23749 10.1114 7.91249H10.0737V6.74999H7.51397V15.3375H10.1867V11.1C10.1867 9.97499 10.4125 8.88749 11.8054 8.88749C13.1982 8.88749 13.1982 10.1625 13.1982 11.175V15.3375Z" fill="#161C2D"/>
</svg>
