<svg width="20" height="20" viewBox="0 0 20 20" fill="none" xmlns="http://www.w3.org/2000/svg">
<path d="M19.2261 10.3737C19.2253 5.28901 15.2533 1.09489 10.1875 0.829628C5.12174 0.564364 0.735397 4.32081 0.206048 9.37775C-0.323302 14.4347 3.18964 19.0219 8.20004 19.8164V13.1367H5.77907V10.3737H8.20004V8.26783C8.20004 5.8722 9.62389 4.54893 11.8017 4.54893C12.5169 4.55888 13.2304 4.62117 13.9366 4.73533V7.08794H12.7338C12.3187 7.03267 11.901 7.16966 11.5987 7.46022C11.2964 7.75078 11.1424 8.16337 11.1801 8.58147V10.3737H13.8251L13.402 13.1367H11.1801V19.8164C15.8144 19.0816 19.2269 15.0768 19.2261 10.3737Z" fill="#473BF0"/>
</svg>
